<svg width="1024" height="1024" viewBox="0 0 1024 1024" fill="none" xmlns="http://www.w3.org/2000/svg">
<g clip-path="url(#clip0_38_4)">
<path d="M896.276 391.128C926.79 387.889 948.157 414.965 944.023 443.575C940.408 468.599 911.432 492.882 894.045 509.957L835.935 566.951L662.247 738.796C652.597 748.205 643.309 758.2 631.404 764.848C605.703 779.202 582.129 773.363 554.678 768.958L508.763 761.78L347.671 736.673C334.929 734.688 322.187 732.741 309.492 730.466C305.344 729.722 301.173 729.031 296.947 729.007L296.212 729.006C292.023 731.592 278.859 745.047 274.848 749.001C257.784 765.821 240.942 782.952 223.918 799.828C216.809 806.978 209.764 810.384 199.552 810.246C185.007 810.05 176.939 799.78 167.423 790.284L143.982 766.863L97.1256 719.972C88.7475 711.583 80.3596 703.27 72.0636 694.76C63.9101 686.647 59.374 678.527 59.6935 666.821C60.1151 651.376 71.186 643.55 81.6145 634.016L104.889 612.729L197.156 528.449C225.347 501.885 252.543 486.948 291.428 481.353C317.853 477.55 340.533 478.067 366.825 482.923C383.163 485.94 395.895 491.808 411.381 495.893L524.131 525.155L594.451 543.685C605.155 546.481 620.251 549.62 629.815 553.366C659.013 564.803 664.592 614.533 637.284 631.218C629.995 635.671 617.631 639.649 609.277 638.845C602.847 638.226 593.835 635.298 587.629 633.592L553.108 624.228L454.642 598.542C438.069 594.239 420.013 588.984 403.445 585.249C394.087 588.006 388.224 597.317 393.618 606.639C395.209 609.39 398.077 610.438 401.105 611.323C410.763 614.148 420.575 616.623 430.317 619.187L487.127 634.078L558.242 652.758C595.651 662.619 616.489 673.475 652.266 651.588C683.185 632.673 690.493 588.002 671.802 559.089C676.145 555.929 680.493 552.476 684.711 549.144C741.535 504.251 798.133 459.082 855.551 414.949C869.816 403.984 877.705 394.388 896.276 391.128Z" fill="#F49E4E"/>
<path d="M458.413 190.696C495.971 185.593 521.935 218.048 544.241 242.944C568.28 219.988 589.253 190.312 625.755 190.711C681.084 191.315 714.671 253.023 688.539 300.784C679.797 316.764 669.692 325.452 657.569 338.295C643.325 353.386 628.885 367.851 614.266 382.491C600.168 396.591 586.558 411.294 572.519 425.476C565.724 432.34 559.22 439.899 552.136 446.496C550.374 448.136 546.602 451.138 544.302 451.426C542.541 451.647 539.954 450.558 538.607 449.422C530.602 442.671 523.253 434.739 516.079 427.179L485.447 395.227L433.456 342.028C424.529 332.874 411.377 320.887 404.38 310.606C371.646 262.511 400.374 197.264 458.413 190.696Z" fill="#F49E4E"/>
</g>
<defs>
<clipPath id="clip0_38_4">
<rect width="1024" height="1024" fill="white"/>
</clipPath>
</defs>
</svg>
